<?xml version="1.0" standalone="no"?>
<!DOCTYPE svg PUBLIC "-//W3C//DTD SVG 20010904//EN"
 "http://www.w3.org/TR/2001/REC-SVG-20010904/DTD/svg10.dtd">
<svg version="1.0" xmlns="http://www.w3.org/2000/svg"
 width="300.000000pt" height="300.000000pt" viewBox="0 0 300.000000 300.000000"
 preserveAspectRatio="xMidYMid meet">
<metadata>
Created by potrace 1.10, written by Peter Selinger 2001-2011
</metadata>
<g transform="translate(0.000000,300.000000) scale(0.100000,-0.100000)"
fill="#000000" stroke="none">
<path d="M2745 2874 c-177 -19 -237 -31 -365 -71 -263 -81 -486 -214 -693
-412 -94 -91 -246 -265 -274 -315 -8 -15 -12 -15 -46 -1 -168 70 -423 -114
-692 -500 -57 -82 -66 -99 -54 -110 12 -12 26 -3 94 56 184 161 369 287 459
311 40 10 48 10 62 -4 17 -17 10 -40 -20 -71 -8 -8 -36 -66 -61 -129 l-47
-114 89 -92 90 -93 -143 -138 -142 -139 34 -33 34 -33 127 125 c70 68 133 131
140 139 10 13 26 1 106 -78 l94 -93 146 66 c81 37 154 65 162 61 67 -26 -90
-282 -332 -540 -49 -52 -53 -60 -40 -73 13 -13 22 -10 78 28 294 198 493 395
544 539 19 53 19 147 1 181 -13 25 -12 27 16 44 65 38 229 178 323 276 242
251 387 515 456 829 21 98 44 325 34 341 -4 5 -2 16 4 23 17 20 -84 31 -184
20z m125 -43 c12 -8 12 -30 3 -153 -9 -117 -18 -169 -52 -285 -23 -78 -46
-154 -51 -167 -9 -24 -20 -15 -259 227 -137 139 -252 255 -256 259 -21 21 281
104 445 121 71 8 155 6 170 -2z m-397 -404 l266 -274 -41 -74 c-179 -331 -463
-601 -848 -808 l-114 -62 -108 109 -108 108 130 129 130 129 -32 33 -32 33
-71 -67 c-38 -38 -97 -94 -131 -126 l-60 -58 -107 108 -106 108 41 75 c184
336 405 589 668 764 82 55 232 142 251 145 3 1 125 -122 272 -272z m-1110
-389 c14 -12 11 -21 -33 -92 -27 -43 -51 -84 -53 -90 -3 -7 -9 -7 -20 3 -60
49 -255 -44 -460 -221 -32 -28 -60 -48 -62 -46 -3 2 43 61 101 131 144 174
263 274 372 313 47 17 133 18 155 2z m181 -539 c-132 -132 -191 -185 -199
-178 -7 8 47 66 180 194 104 101 193 181 198 178 5 -3 -76 -90 -179 -194z
m-125 -29 c1 -3 -23 -29 -52 -58 l-53 -52 -81 83 -81 82 36 78 35 78 98 -103
c54 -57 98 -105 98 -108z m214 -307 c-37 -17 -75 -32 -83 -32 -8 -1 -49 35
-90 80 l-75 82 55 53 55 53 103 -102 103 -102 -68 -32z m437 141 c26 -78 -27
-200 -143 -329 -54 -60 -217 -200 -297 -255 l-35 -24 25 31 c14 17 54 66 89
109 86 106 149 204 172 270 23 64 23 71 4 107 -14 27 -14 27 33 51 26 14 63
36 82 50 47 34 56 32 70 -10z m-865 -135 c-126 -123 -145 -139 -145 -122 0 17
255 262 263 254 5 -5 -48 -64 -118 -132z"/>
<path d="M2745 2789 c-55 -10 -171 -25 -257 -35 -86 -9 -155 -21 -153 -24 10
-15 72 -17 189 -4 239 26 323 44 340 73 8 13 8 13 -119 -10z"/>
<path d="M2039 2286 c-83 -29 -149 -111 -164 -203 -14 -90 36 -184 122 -227
72 -36 200 -11 266 52 89 84 100 232 24 319 -58 66 -160 91 -248 59z m149 -31
c92 -39 132 -120 108 -215 -17 -66 -55 -113 -118 -144 -61 -31 -108 -33 -164
-7 -121 55 -139 214 -35 315 63 61 139 80 209 51z"/>
<path d="M2066 2220 c-16 -5 -42 -22 -59 -37 -131 -124 -18 -322 149 -258 67
26 104 80 104 156 0 48 -4 63 -27 90 -44 52 -101 68 -167 49z m116 -50 c62
-48 61 -127 -2 -184 -32 -29 -48 -36 -81 -36 -54 0 -95 30 -110 80 -10 32 -9
44 7 76 37 76 131 108 186 64z"/>
<path d="M2569 1974 c-41 -45 -250 -226 -334 -290 -109 -83 -218 -155 -306
-203 -85 -47 -86 -55 -1 -12 154 78 400 262 566 422 61 60 108 108 105 109 -3
0 -16 -12 -30 -26z"/>
<path d="M1816 1630 c4 -14 10 -54 14 -90 l7 -65 1 60 c1 35 -5 73 -14 90 -12
25 -13 26 -8 5z"/>
<path d="M1125 1391 c-63 -29 -193 -131 -270 -212 -39 -41 -113 -135 -165
-209 -165 -236 -361 -410 -558 -496 -82 -36 -73 -44 23 -19 114 30 280 112
395 196 39 28 42 33 25 39 -17 6 -14 10 23 34 23 14 42 28 42 31 0 3 -23 -9
-50 -26 -28 -17 -48 -35 -45 -40 4 -5 -2 -6 -11 -2 -11 4 -15 3 -10 -5 3 -6 1
-14 -5 -18 -8 -4 -9 -3 -5 5 6 9 0 10 -21 5 -26 -6 -25 -5 12 24 72 54 208
199 200 212 -5 8 -4 11 3 6 11 -7 66 55 162 184 74 100 178 210 238 251 23 17
42 27 42 24 0 -4 -26 -37 -58 -73 -33 -37 -74 -89 -92 -117 -19 -27 -62 -86
-98 -130 -35 -44 -45 -60 -22 -35 23 25 86 104 140 176 61 81 112 140 136 155
30 18 35 25 21 27 -18 4 -18 4 0 18 27 20 -3 18 -52 -5z m-205 -205 c0 -3 -80
-110 -139 -186 -28 -36 -61 -70 -68 -70 -3 0 7 16 21 35 15 19 23 35 19 35 -4
0 -3 4 2 8 6 4 23 25 40 47 30 41 115 135 121 135 2 0 4 -2 4 -4z"/>
<path d="M1172 1343 c-30 -27 -135 -163 -130 -168 3 -3 20 12 39 33 29 32 47
55 112 140 14 18 2 15 -21 -5z"/>
<path d="M1366 1102 c-60 -119 -111 -176 -256 -287 -74 -57 -157 -128 -185
-157 l-50 -53 50 45 c27 25 52 48 55 52 12 15 196 147 205 147 17 0 -151 -155
-223 -206 -70 -50 -94 -69 -174 -142 -27 -25 -57 -51 -68 -58 -18 -13 -19 -12
-12 4 13 33 94 143 102 138 11 -7 162 224 154 237 -4 6 -3 8 4 4 6 -3 25 14
43 39 33 45 50 55 29 16 -6 -12 -8 -21 -6 -21 6 0 46 75 46 85 0 4 -39 -29
-87 -73 -96 -87 -471 -399 -574 -477 -55 -41 -47 -31 54 68 77 75 116 120 111
128 -4 7 -3 10 4 5 18 -11 159 157 232 278 23 39 23 38 -66 -29 -125 -94 -145
-118 -31 -37 26 19 50 32 54 29 11 -12 -159 -227 -180 -227 -3 0 -4 15 -1 33
l6 32 -24 -26 c-13 -14 -71 -84 -130 -155 -58 -71 -163 -185 -232 -252 -69
-67 -123 -122 -120 -122 3 0 51 31 107 69 188 129 627 491 627 517 0 13 70 78
103 95 16 9 17 8 5 -13 -7 -13 -28 -47 -48 -77 -30 -46 -35 -50 -40 -32 -4 18
-18 5 -81 -81 -107 -145 -222 -321 -279 -427 -6 -13 59 49 147 137 95 96 226
213 328 295 228 181 317 276 418 442 53 90 60 112 36 118 -16 4 -26 -7 -53
-61z"/>
<path d="M921 1009 c-67 -49 -76 -58 -33 -33 33 19 101 73 92 73 -3 0 -30 -18
-59 -40z"/>
<path d="M970 1006 c0 -8 -3 -16 -7 -18 -5 -1 -20 -21 -35 -43 -15 -22 -37
-52 -48 -67 -12 -16 -19 -28 -16 -28 5 0 101 127 120 158 4 6 2 12 -3 12 -6 0
-11 -6 -11 -14z"/>
<path d="M1235 982 c-22 -20 -65 -59 -95 -85 -46 -41 -47 -43 -10 -15 47 35
158 137 150 137 -3 0 -23 -16 -45 -37z"/>
</g>
</svg>
